<svg id="Capa_1" enable-background="new 0 0 512 512" height="512" viewBox="0 0 512 512" width="512" xmlns="http://www.w3.org/2000/svg"><g><path d="m410.579 392h-124.579-180c-24.853 0-45 50.147-45 75 0 23.67 19.429 45 45 45h180 150c8.284 0 15-6.716 15-15v-15z" fill="#ff4d4d"/><path d="m451 497v-15l-40.421-90h-124.579v120h150c8.284 0 15-6.716 15-15z" fill="#cc295f"/><path d="m422.421 407h-136.421-135l-30 15c-16.569 0-30 13.431-30 30 0 16.567 13.431 30 30 30h165 165v-60z" fill="#e6f2f2"/><path d="m451 422-28.579-15h-136.421v75h165z" fill="#cfe6e6"/><path d="m436 0h-150-165l-15 27.79v357.261l15 36.949h165 165v-407c0-8.291-6.709-15-15-15z" fill="#ff884d"/><path d="m451 15c0-8.291-6.709-15-15-15h-150v422h165z" fill="#ff4d4d"/><path d="m226 361c-8.291 0-15-6.709-15-15v-30c0-8.291 6.709-15 15-15s15 6.709 15 15v30c0 8.291-6.709 15-15 15z" fill="#e6f2f2"/><path d="m346 361c-8.291 0-15-6.709-15-15v-30c0-8.291 6.709-15 15-15s15 6.709 15 15v30c0 8.291-6.709 15-15 15z" fill="#cfe6e6"/><path d="m389.652 137.187c-1.758-5.435-6.445-9.39-12.1-10.21l-54.199-7.881-24.229-49.072c-2.468-5.021-7.774-7.509-13.125-7.612-5.574-.108-11.199 2.379-13.77 7.612l-24.229 49.072-54.17 7.881c-5.654.82-10.342 4.775-12.1 10.21-1.758 5.42-.293 11.382 3.809 15.366l39.199 38.203-9.287 53.965c-.967 5.625 1.348 11.309 5.977 14.663 4.629 3.369 10.752 3.779 15.791 1.143l48.781-25.304 48.135 25.303c5.127 2.701 11.239 2.17 15.791-1.128 4.629-3.369 6.943-9.053 5.977-14.678l-9.258-53.95 39.199-38.218c4.101-3.984 5.566-9.946 3.808-15.365z" fill="#ffea80"/><path d="m349.926 259.398c4.629-3.369 6.943-9.053 5.977-14.678l-9.258-53.95 39.199-38.218c4.102-3.984 5.566-9.946 3.809-15.366-1.758-5.435-6.445-9.39-12.1-10.21l-54.199-7.881-24.229-49.072c-2.468-5.021-7.774-7.509-13.125-7.612v172.811l48.135 25.303c5.127 2.702 11.239 2.171 15.791-1.127z" fill="#ffd24d"/><path d="m286 271c-8.291 0-15 6.709-15 15v60c0 8.291 6.709 15 15 15s15-6.709 15-15v-60c0-8.291-6.709-15-15-15z" fill="#e6f2f2"/><path d="m301 346v-60c0-8.291-6.709-15-15-15v90c8.291 0 15-6.709 15-15z" fill="#cfe6e6"/><path d="m61 61v406c0-24.853 20.147-45 45-45h15v-422c-33.076 0-60 27.909-60 61z" fill="#99471f"/></g></svg>